# xmcd
#
# Track frame offsets:
#	150
#	9927
#	27172
#	42842
#	57155
#	70345
#	91640
#	107152
#	119787
#	132925
#	144495
#	157850
#	172210
#	185972
#	203770
#	219640
#
# Disc length: 3083 seconds
#
# Revision: 1
# Processed by: cddbd v1.5.1PL0 Copyright (c) Steve Scherf et al.
# Submitted via: audiograbber 1.83.01
#
DISCID=e50c0910
DTITLE=Serie 32 - Instrumentales Dorados - Serie 32 [CD 1)
DYEAR=1900
DGENRE=Instrumental Pop
TTITLE0=Tijuana Brass - Tijuana Taxi
TTITLE1=Paul Mauriat - I Just Called To Say I Love You
TTITLE2=Jean-Claude Borelly - Dolannes Melody
TTITLE3=Bert Kaempfert - A Swingin' Safari
TTITLE4=Nicolas de Angelis - Amor Amor
TTITLE5=Burt Bacharach and Hal David - This Guy's In Love With You
TTITLE6=Paul Mauriat - New York, New York
TTITLE7=Richard Clayderman - Ebony and Ivory
TTITLE8=James Last - Yesterday
TTITLE9=Burt Bacharach and Hal David - Raindrops Keep Fallin' On My Head
TTITLE10=Antonio Carlos Jobim - Insensatez
TTITLE11=Richard Clayderman - Caminito
TTITLE12=Mantovani - Limelight
TTITLE13=James Last - Let It Be
TTITLE14=Paul Mauriat - Memory
TTITLE15=Ronnie Aldrich - 'Till
EXTD=
EXTT0=
EXTT1=
EXTT2=
EXTT3=
EXTT4=
EXTT5=
EXTT6=
EXTT7=
EXTT8=
EXTT9=
EXTT10=
EXTT11=
EXTT12=
EXTT13=
EXTT14=
EXTT15=
PLAYORDER=
